# xmcd
#
# Track frame offsets:
#	150
#	3751
#	110487
#	113148
#
# Disc length: 2517 seconds
#
# Revision: 1
# Processed by: cddbd v1.5.1PL0 Copyright (c) Steve Scherf et al.
# Submitted via: audiograbber 1.82.02
#
DISCID=2409d304
DTITLE=Deepak Chopra - Weight Loss disc 2
DYEAR=2005
DGENRE=audio book
TTITLE0=disk 2 track 1
TTITLE1=disk 2 track 2
TTITLE2=disk 2 Track  3
TTITLE3=disk 2 Track  4
EXTD=
EXTT0=
EXTT1=
EXTT2=
EXTT3=
PLAYORDER=
